<svg id="Layer_1" data-name="Layer 1" xmlns="http://www.w3.org/2000/svg" viewBox="0 0 612 792"><defs><style>.cls-1{fill:#77102a;}.cls-1,.cls-2,.cls-3,.cls-4,.cls-5,.cls-6,.cls-7,.cls-8{stroke:#2b1b1f;stroke-miterlimit:10;}.cls-2{fill:#1c4d82;}.cls-3{fill:#ce7e62;}.cls-4{fill:#334489;}.cls-5{fill:#6d4651;}.cls-6{fill:#647231;}.cls-7{fill:#c08ec0;}.cls-8{fill:#7a4196;}</style></defs><path class="cls-1" d="M117.68,441.11c-5.33-4.53-11.6-7.81-17.78-11C86.51,423.14,63,411.42,64.36,392.78c.79-10.57,10.54-17.59,18.7-22.82s18.29-9.52,24.7-16.64c2-2.21,2.8-4.05,1.8-6.44-2.09-5-8.93-9.08-14.59-11.8-9.38-4.5-15-11.55-16.26-22-1.1-8.88-.36-20.82,7.65-26.47,8.43-6,19.87-3,29.33-2.23,4.8.38,10.21.74,14.64-1.51,3.42-1.73,5.44-5.38,6.9-8.78,3.63-8.4,5.38-19.54,2.77-28.47-3.19-10.91-14.79-9.81-23.56-7.48-10.06,2.67-20.49,7.29-31.11,6.18-8.48-.89-13.93-6.1-18.52-12.83-5.58-8.18-11.77-19.25-23.19-18.91-9.72.29-18.3,6.75-27.62,9.58V439.87a12,12,0,0,0,12,12h99.24A57.89,57.89,0,0,0,117.68,441.11Z"/><path class="cls-2" d="M156.87,445c-3.35-9.35-9.5-16.3-16.58-23-5.94-5.61-11.73-11.44-14.83-19.17a35.6,35.6,0,0,1-.07-26.31c2.67-6.48,7.43-11.54,12-16.76,6.07-7,9.89-14.15,11.41-23.39,1.7-10.37,2.51-20.61,8.43-29.68,5.15-7.89,12.95-13.42,14.78-23.12a129.36,129.36,0,0,0,2.12-29.19c-.51-10.18-3.52-20-4.75-30.13-2.27-18.81,3.17-37.76,11.84-54.34,9.09-17.36,22-32.88,36.58-45.91,14.32-12.8,31.33-21.26,47-32.12,7.87-5.45,15.1-11.66,20.82-19.39a227.65,227.65,0,0,0,13.45-21.38c2.28-3.94,4.58-7.94,7-11.88H262.39c-26.08,25.11-64,38-81.52,71.11-8.51,16.09-13.53,33.72-23.38,49.15-8.94,14-20.54,27.9-36,34.8-14.07,6.27-32.28,6.11-41.48-8a33.49,33.49,0,0,1-5-21.32c.89-7.9,5.69-14.57,10.71-20.45,5.47-6.41,11.55-12.17,16.55-19,5.12-7,11.47-14.72,12.6-23.6,1-7.65-3-15.48-10.67-17.57-6.56-1.8-13.54-.41-20,1.14-17.66,4.24-32.1,16-44.44,28.92C33,121.56,25.36,131.43,16,136.29v75.48c3.25-1.11,6.4-2.51,9.58-3.94C36.32,203,47.29,200.09,58,206.69,67,212.17,71,221.13,77.24,229s15.68,5.56,24.27,3.16c10-2.78,20.34-7.19,30.88-5.18,23.1,4.4,21,34.76,13.93,51.14-3.89,9.05-10.35,15-20.36,16.22-5.64.69-11.26,0-16.87-.61-4.67-.5-10.18-1.51-14.75,0-8.09,2.69-7,17.38-4.43,23.67,2.2,5.41,6.84,7.44,11.79,9.83a40.85,40.85,0,0,1,11.47,7.86c7.84,7.86,8.92,17.85,1,26C106.57,368.91,96,373.43,87,379.31c-3.67,2.41-8.1,5.68-10.33,8.7-2.57,3.48-3.15,6-1.56,9.91,2.78,6.9,10.54,12.57,16.8,16.42,10.7,6.59,22.51,11.1,32.25,19.22a74.23,74.23,0,0,1,15.36,18.31h19.21A47.67,47.67,0,0,0,156.87,445Z"/><path class="cls-3" d="M564.69,176.46c1.5,7.56,9.58,11.51,15.63,15,2.69,1.53,5.33,3.08,7.86,4.75V113.77c-12.77-4.71-21.83-16.39-30.73-26.77C552,80.7,546.23,74,538.6,70.35A24.42,24.42,0,0,0,527.13,68a20.31,20.31,0,0,0-7.23,1.37c-.8.35-1.94,1.51-1.8.86a.34.34,0,0,1,0,.08c0,.15.08.39.14.8.49,3.41,4,7,5.77,9.83a31,31,0,0,1,4.52,10.31c1.65,8.37-.73,17.24-8.44,21.69-16.45,9.5-32.66-3.86-45.18-13.25C467.71,94.31,459,87,449.67,86.28c-8.43-.66-12.49,7.2-13.38,14.48-2.05,16.68,7.12,36.5,21.54,45.27,19.51,11.87,44,1,62.15-8.18,11.53-5.85,35.81-20.74,43.93-2.41,2.74,6.2,2.52,13.48,2.06,20.1S563.39,169.91,564.69,176.46Z"/><path class="cls-4" d="M552.06,254.77c-11-6.5-31.11-20-42.55-7.77-7.85,8.41-2.4,17.47,6.34,22.22,7.67,4.17,15.93,7.57,22.45,13.55C550,293.52,553.17,313,555.11,328c2,15.74,1.7,34-7.52,47.6-10.12,15-30.37,20.64-47.69,18.66a40.28,40.28,0,0,1-35.52-40.71c.38-18.18,14.46-37.54,33.18-40.21,19.24-2.74,28.19,18.09,26.29,34.45-1,8.81-6.72,17.09-16.19,17.84s-13.83-6.95-12.12-15.42a5,5,0,0,1,3.49-3.49c5.78-1.69,10.56-.82,14.35,3a21.52,21.52,0,0,0,.64-7.36c-.4-6.94-2.54-17.43-10.59-19.12-7.47-1.57-15.19,4-20,9a31.76,31.76,0,0,0-8.65,26.84c1.44,8.63,6.79,17.18,14.45,21.57,7.32,4.19,16.29,4.57,24.46,3.27,15.08-2.38,26.34-9.76,30.44-24.94,3.63-13.48,2.06-28.23-.94-41.67-1.5-6.75-3.12-14.21-6.37-20.34s-8.63-10-14.66-13.3c-7.07-3.9-15.07-6.82-20.52-13-4.94-5.63-7.51-13.18-5.35-20.57,4.08-14,18.07-19.88,31.36-17.25,13.45,2.67,25.74,10.88,37.24,17.93,7.1,4.34,15,10.14,23.33,13.67V208.45c-5.72-5.22-13.44-8.3-19.79-12.51-8.21-5.45-14.12-12.79-14-23.05.12-7.95,1.81-15.8,1.79-23.76,0-4.68,0-12.5-6.14-12.62-5.27-.1-10.92,3.14-15.53,5.29-4.95,2.31-9.79,4.85-14.67,7.3-10.44,5.23-21,9.54-32.67,11.05-11,1.43-22.32.94-32.36-4.31-8.88-4.65-15.59-12.64-20.51-21.21-8-13.92-12.95-34.73-3-49.09,13.24-19.17,36.23-3.86,49.71,6.31,6.84,5.17,13.91,12,22.6,13.64,7,1.35,15.5-.54,15.45-9.08,0-8.23-7.13-13.82-9.92-21.11-3.6-9.41,3.82-15.14,12.39-16.71C539,55.38,552.37,66,563.17,78.37c7.18,8.24,14.77,19.47,25,24.68V51.27a12,12,0,0,0-12-12H343.35c-.32,1-.64,2.06-1,3.07-2.42,7.72-12.28,29.34-.33,33.51,5.43,1.9,9.34.31,14.66-1.84,6.13-2.49,12.09-5.39,18.25-7.81,9.58-3.76,24.82-8.47,30.74,3.43,3.43,6.91,2.06,16.58-.85,23.36-2.58,6-4.95,10.52-4.5,17.27.35,5.19,1.5,10.4.89,15.62-.88,7.53-5.23,16-13.88,15.45-8.25-.52-15-7.24-22.51-10.07-2-.76-6.28-2.57-8.39-1-2.53,1.88-1.35,8.17-.77,10.56,2.37,9.83,13.08,11.07,21.59,12.08,9.27,1.1,18.66-1.56,27.82,0s14.38,9.46,15.65,18.32c1.33,9.2.09,20.14-5.42,27.9-5.74,8.09-16.47,13-26.09,9.06-4.18-1.73-6.47-4.88-8-9.06-.64-1.7-1.17-6-4.16-4.93-4.28,1.58-2,12.5-.56,15.27,3.5,7,15.6,9.43,22.4,11.21,4,1.06,8.06,2.18,12.26,1.83,3.77-.31,7.44-1.36,11.18-1.9,8.24-1.19,15.62.9,19.07,9.12,3,7,3,15.86-.47,22.74-6.47,12.77-23,15.74-35.86,16.69-15.13,1.11-32.56,1.14-46.68-4.75a51.63,51.63,0,0,1-14.23-8.85A84.53,84.53,0,0,1,355.85,277c2.07,5.77,3.24,12.12,7.64,16.66,3.58,3.69,8.07,6.36,12.38,9.09,10.13,6.4,18,13.14,23.62,23.92,11.64,22.19,9.08,48.23,11.29,72.44a130,130,0,0,0,8.79,36.25c2.2,5.56,4.65,11,6.8,16.55H576.18a12,12,0,0,0,12-12V275C575.27,270.53,563.43,261.51,552.06,254.77Z"/><path class="cls-5" d="M284.31,424.71a46.7,46.7,0,0,0-13.17,21.48c-.56,1.86-1.11,3.76-1.58,5.68h93.12c-.18-15.57-2-31.22-6.55-46.06-5.32-17.49-15.69-35.34-34.81-39.65-13.65-3.09-26,2.62-39.3,4.33-15.12,1.95-31.57-6-36.66-21.08-5-14.86,6.6-25.16,17.29-33.06,5.71-4.22,10.88-8.43,14.09-14.89s5.27-14.69,1.95-21.57c-2.58-5.34-9.87-12.16-16.29-11.76-8.33.51-6.27,10.67-5.4,16.09,1.13,7,.57,13-5,17.95-4,3.59-9.17,5.66-14.45,3.83-9.33-3.22-13.7-15.92-15.21-24.71-.63-3.65-1.24-7.51-1.65-11.28a33.53,33.53,0,0,0-3.85,8.82c-4.21,15.82,4.36,31.7,7.19,47,1,5.6,1.81,11.86-1.58,16.83-2.63,3.88-7,5.22-11.21,6.77-3.87,1.43-9.88,5.19-9.75,10.05.1,3.62,5.68,5.56,8.38,6.77,4.65,2.08,9.6,3.6,13.55,7,5,4.28,7.32,10.33,10.47,15.94,7.91,14.1,24.91,8.75,37.75,5.69,7.58-1.81,21.21-7,26.7,1.48,3,4.65,1.32,10.86-.82,15.5C294.73,417.94,289,420.39,284.31,424.71Z"/><path class="cls-6" d="M431.17,231.67c-2.19-2.34-6-1.44-8.79-.94a104.4,104.4,0,0,1-11.77,1.87c-8.48.51-18-2.84-25.8-5.9-7.53-3-15.11-6.81-18.1-14.81-2.36-6.29-2.87-14.51.17-20.66a12.46,12.46,0,0,1,17.72-5.17c4,2.34,4.57,6.59,6.26,10.46,2,4.51,7.86,3.47,11.47,1.4,8.4-4.82,10-17.17,8.49-25.88-2-11.26-11.16-9.66-20.17-8.94-16.81,1.34-41.69-1.34-45-21.74-1.23-7.52-.51-17.57,7.8-20.67,7.21-2.68,15.45,1,21.76,4.42,3.63,2,7.13,4.51,11.06,5.82,3.09,1,3.56-.47,4.47-3.49,1.67-5.56,0-11.53-.35-17.18a32.74,32.74,0,0,1,2.85-15.83c2.41-5.44,7.59-15.6,2.94-21.4-.65-.81-2.34-1.09-4.09-1.07a26.66,26.66,0,0,0-6.91,1.27c-11.69,3.34-22.3,11-34.28,13.15-6.29,1.15-14-.52-18.75-4.93s-6-11.34-5.37-17.67c.69-7.43,3-14.58,5.23-21.66q.45-1.41.93-2.85H317.78c-5.34,8.18-10,16.91-14.95,25.17C298.3,72,293.44,79.51,287.43,86c-7.45,8-16.77,14.29-26,20.07-8.17,5.12-16.58,9.88-24.51,15.41A147.66,147.66,0,0,0,215.59,140c-13.54,13.94-25.37,30.43-31.86,48.89a81.1,81.1,0,0,0-4.92,27.87c.12,10,3,19.67,4.44,29.51,1.35,9.48.52,18.7-.22,28.19s-1.93,18.14-7.9,25.88c-3,3.89-6.59,7.34-9.31,11.45a38.62,38.62,0,0,0-5.4,13.89c-2,10-2.17,20.08-7.21,29.27-7.09,12.9-21.78,21-20.14,37.45,1.52,15.32,17,23.09,25.33,34.51a57.37,57.37,0,0,1,10.29,25h90.66q.31-1.47.66-2.91c2.05-8.37,5.1-16.68,10.28-23.64,4.39-5.91,9.9-9.36,15.32-14.07a12.91,12.91,0,0,0,4.38-9,1.7,1.7,0,0,0,0-.32,3.31,3.31,0,0,0-1.07-.16c-5,.23-9.73,1.54-14.6,2.71-13.53,3.23-30.71,8-42.57-2-5-4.27-7.32-10.34-10.47-15.94s-7.35-7.77-13-10.13c-9.25-3.89-20.24-10.19-15.65-22a23.82,23.82,0,0,1,11.44-12.71c2.79-1.36,8.7-2,10.39-4.92,1.48-2.54.18-7-.36-9.62-.81-4-1.94-7.85-3-11.74-2.23-7.81-4.43-15.66-5.1-23.8a42.93,42.93,0,0,1,4.8-24.17c2.3-4.27,6.12-11.42,11.92-11.22,10.12.36,8.27,18.39,9.79,25,1.08,4.68,2.77,10.12,6.12,13.7,3.65,3.9,8.89,0,9-4.8.22-7.38-3.36-14-.31-21.39A16.87,16.87,0,0,1,263,258.12c14.37.19,26.87,14.9,27.38,28.57.58,15.39-8.76,27.88-20.44,36.66-5.39,4-12.63,8.24-15,14.95-2.73,7.75,3.13,15.12,9.37,19,8,5,16.7,3.63,25.36,1.43,7.26-1.83,14.47-3.55,22-3.59a49.16,49.16,0,0,1,28.87,8.72c17.25,12.33,25.09,33.88,28.84,54a201.43,201.43,0,0,1,3.36,34h43.19c-2.3-5.55-4.86-11-7-16.5-8.89-23.2-8.23-47.17-10.29-71.52-1.11-13.09-3.26-25.27-10.31-36.61-6.41-10.34-17-14.78-26.35-21.84-4.46-3.36-8.45-7.11-10.85-12.24-2.26-4.85-3.48-10.05-5.45-15C341.17,266.84,333,256.05,324,248c-15-13.37-37.65-16.93-46-37.28-6.12-14.94,1.26-36.34,19.25-37.83,22.45-1.86,30.39,26.17,35.06,42.76,3,10.58,6.76,20.31,14.31,28.53A45.16,45.16,0,0,0,371.14,258c7.15,1.49,14.74,1.51,22,1.58a102.05,102.05,0,0,0,20.73-1.46c5.8-1.14,12.47-2.95,16.46-7.64C434.12,246,435.41,236.21,431.17,231.67Z"/><path class="cls-7" d="M310,188.68c-5.38-5.85-13.29-8.33-19.42-2.07-5.9,6-6.09,15.51-2.2,22.64,4.93,9,14.18,14,22.87,18.86,8.27,4.59,15.91,9.16,22.65,15.57a89.57,89.57,0,0,1-11.18-25.39C319.78,208,317.41,196.79,310,188.68Z"/><path class="cls-8" d="M24.55,116c5.48-5.68,10.76-11.41,16.62-16.71C56,85.89,72.4,76,92.6,73.92,107.25,72.4,121,78.61,124.34,94c3.59,16.68-10,33.63-20.32,45.3-9.89,11.15-24.88,22.84-16.91,39.37s29.64,8.77,40.65.16c13.22-10.35,23-25.44,29.87-40.55,7.46-16.27,12.78-33.64,24.37-47.63C200,69,226.09,57,247.45,39.27H28a12,12,0,0,0-12,12v73.12A103.91,103.91,0,0,0,24.55,116Z"/></svg>