<?xml version="1.0" encoding="UTF-8"?><svg id="a" xmlns="http://www.w3.org/2000/svg" viewBox="0 0 685.53 454.15"><defs><style>.b{fill:#fff;}</style></defs><path d="m3.34,430.05c6.14-9.46,3.41-19.86,3.33-30.03-.93-127.92-1.81-255.84-2.6-383.77-.09-14.61.19-14.58,14.77-14.55,15.62.03,31.24,0,46.86-1.02h-9.33c0-.2,0-.41,0-.61,17.01,0,34.02-.2,51.03.04,29.02.41,58.03,1.4,87.05,1.58,46.6.29,93.2.31,139.8.09,54.88-.26,109.76-1.32,164.63-1.23,33.45.05,66.89,1.79,100.35,2.44,22.85.45,45.71.41,68.56.42,8.08,0,8.38.05,8.37,7.84-.04,117.34-.07,234.67-.11,352.01,0,16.05,0,32.1,0,48.27-50.34,1.39-99.73.68-149.01,4.29,8.32,3.12,16.1,7.46,25.49,3.56,4.46-1.85,9.98-1.43,15.04-1.51,34.11-.52,68.22-.87,102.33-1.35,3.86-.05,6.8.54,6.4,5.8-2.14.15-4.32.3-6.49.45-.06.48-.12.96-.19,1.44,3.87.8,7.73,1.6,11.6,2.39.02.35.03.7.05,1.04-2.75.13-5.5.35-8.26.38-38.35.48-76.71,1.05-115.06,1.37-61.23.52-122.46.95-183.7,1.27-55.72.29-111.44.57-167.16.52-66.96-.06-133.92-.47-200.87-.75-1.03,0-2.06-.3-3.09-.45,0,0,.2.06.2.06Zm528.3-220.25c.37,0,.75,0,1.12,0,0-48.88,0-97.76.02-146.63,0-3.8.36-7.6.4-11.4.1-9.59.24-19.18-.07-28.76-.03-.96-3.02-2.47-4.73-2.6-4.64-.36-9.33-.12-14-.12,0-.37.02-.74.03-1.11,4.03-.21,8.06-.42,12.08-.64.02-.74.04-1.47.06-2.21-2.57-.69-5.11-1.86-7.7-1.98-17.97-.84-35.95-1.85-53.94-2.09-59.76-.8-119.51-1.26-179.27-1.98-3.6-.04-7.18-1.13-10.32-1.66-2.69.61-5.18,1.63-7.68,1.65-15.89.16-31.79-.07-47.68.15-44.28.6-88.56,1.31-132.83,2.05-17.8.3-35.59.71-53.38,1.35-2.17.08-4.28,1.91-6.42,2.92.28.69.55,1.38.83,2.07h76.55c-20.33.59-40.67.35-60.99.66-17.12.26-23.66,5.14-23.54,22.06.6,84.08.71,168.16,1.22,252.23.19,30.91.98,61.81,1.53,92.71.15,8.46,3.39,11.59,12.04,12,3.81.18,7.6.67,11.41.75,43.85.91,87.71,2.06,131.57,2.59,113.39,1.37,226.76.37,340.1-3.28,8.77-.28,12.19-3.92,12.21-12.63.1-50.61.22-101.23.3-151.84.03-20.94,0-41.87,0-62.81.36,0,.72,0,1.08,0v38.56Zm17.19,149.74c-1.09,5.9,2.7,5.9,6.47,5.9,32.41.07,64.82.07,97.23.28,5.45.04,7.7-1.26,7.66-7.44-.26-49.32-.24-98.65.03-147.97.03-6.26-2.42-7.44-7.81-7.43-32.62.05-65.25,0-97.86-.32-6.03-.06-7.58,1.95-5.62,8.13,7.7,0,15.49-.08,23.28.02,8.95.11,10.29,1.48,10.29,10.28.02,42.54,0,85.09.01,127.63,0,9.59-.91,10.68-10.35,10.88-7.76.17-15.54.03-23.33.03Zm-173.12,55.4c0-.27,0-.54,0-.81h-133.46c0,.27,0,.54,0,.81h133.46ZM657.9,109.71c0-.21,0-.42,0-.63h-92.62c0,.21,0,.42,0,.63h92.62Zm-82,37.46c0,.17,0,.33,0,.5h80.38c0-.17,0-.33,0-.5h-80.38Zm-10.69,5.16c0,.16,0,.32,0,.48h77.87c0-.16,0-.32,0-.48h-77.87Zm17.74-26.82c.08.18.17.37.25.55h74.49c0-.18,0-.37,0-.55h-74.74Zm-.63,43.29c-.1.14-.19.28-.29.42h73.84c0-.14,0-.28,0-.42h-73.55Zm72.46-37.59c0-.15,0-.31,0-.46h-73.97c0,.15,0,.31,0,.46h73.97Zm-69.33-103.64l.27.58h69.44c0-.19,0-.39,0-.58h-69.71Zm72.41,76.9c0-.19,0-.38,0-.58h-69.65c0,.19,0,.38,0,.58h69.64Zm-75.82-60.25c-.08.19-.16.38-.24.56h69.44v-.56h-69.21Zm73.89,17.1c0-.2,0-.4,0-.6h-67.45c0,.2,0,.4,0,.6h67.45Zm-66.52,102.37c-.07.17-.15.35-.22.52h67.81v-.52h-67.59Zm1.56-81.46v.65h65.77c0-.22,0-.43,0-.65h-65.76Zm65.58,287.88c.04-.17.07-.34.11-.51h-65.88c0,.17,0,.34,0,.51h65.77Zm-39.18-320.41c-.03-.11-.05-.21-.08-.32h-63.29c0,.11,0,.21,0,.32h63.36Zm-21.76-10.66c.08.18.17.35.25.53h60.63c0-.18,0-.35,0-.53h-60.88Zm37.43,336.05c0-.11,0-.22,0-.33h-57.59c0,.11,0,.22,0,.33h57.59Zm24.58-232.52c-.09-.19-.19-.38-.28-.57h-54.09c0,.19,0,.38,0,.57h54.37Zm-106.41-88.13c.04.11.07.22.11.33h50.66c0-.11,0-.22,0-.33h-50.77Zm106.65,66.47c0-.15,0-.3,0-.45h-41.63c0,.15,0,.3,0,.45h41.63Zm-89.58,203.12c1.85-2.4,4.14-4.21,3.83-5.25-.49-1.66-2.71-2.82-4.2-4.19-1.26,1.41-3.38,2.75-3.51,4.27-.11,1.32,2.01,2.83,3.88,5.18Zm.6-27.82c1.9-3.05,3.77-4.78,3.78-6.52,0-1.08-2.86-3.1-4.33-3.01-1.32.08-3.37,2.42-3.47,3.87-.09,1.37,1.93,2.89,4.01,5.66Zm.21,57.79c1.88-2.37,4.28-4.23,3.97-5.27-.52-1.73-2.79-2.93-4.32-4.35-1.29,1.42-3.53,2.8-3.61,4.29-.08,1.42,2.09,2.96,3.96,5.33Zm49.29-168.63c0,.08,0,.16,0,.24h37.89c0-.08,0-.16,0-.24h-37.89Zm1.87-86.54c0,.15,0,.3,0,.44h36.4c0-.15,0-.3,0-.44h-36.4Zm-.36-33.19c0,.14,0,.29,0,.43h36.31c0-.14,0-.29,0-.43h-36.31Zm36.1,114.95c.03-.12.06-.24.08-.36h-36.16c0,.12,0,.24,0,.36h36.08Zm-24.1-92.64c0-.34,0-.69,0-1.03h-29.36c0,.34,0,.69,0,1.03h29.36Zm-1.82-10.4c.01-.13.02-.26.03-.39h-34.26c0,.13,0,.26,0,.39h34.22Zm16.5,15.56c-.03-.4-.06-.8-.09-1.2h-28.51c-.01.4-.02.8-.03,1.2h28.63Zm-95.73,21.09c0,.1,0,.2,0,.3h31.01c0-.1,0-.2,0-.3h-31.01Zm75.48,44.3c0,.13,0,.26,0,.39h29.72c0-.13,0-.26,0-.39h-29.72Zm-58.4,78.61c1.81-2.13,4.04-3.79,3.77-4.67-.47-1.53-2.5-2.59-3.87-3.84-1.1,1.23-2.99,2.4-3.07,3.69-.09,1.27,1.66,2.66,3.18,4.82Zm4.88,23.59c-2.48-1.67-3.89-3.37-5.12-3.25-1.33.13-2.48,1.96-3.72,3.06,1.14,1.23,2.16,3.26,3.45,3.45,1.24.18,2.75-1.56,5.38-3.25ZM251.13,8.89q-4.51-5.73-9.69,0h9.69ZM10.12,415.85c.03.44.06.87.09,1.31h13.67l-.04-1.31h-13.73Z"/><path d="m3.13,430c8.18.45,16.36,1.27,24.54,1.31,94.08.5,188.16.94,282.24,1.29,48.31.18,96.62.45,144.92.14,42.37-.28,84.74-1.54,127.11-1.96,33.87-.34,67.74-.07,103.58-.07-2.15,1.93-3.45,4.12-4.98,4.29-7.1.8-14.26,1.14-21.41,1.45-4.64.2-9.31.22-13.95.06-4.3-.14-5.62,2.14-6.3,5.96-.32,1.78-2.01,4.15-3.62,4.72-11.15,3.95-22.49,6.21-34.57,6.05-25.42-.33-50.85.6-76.28.65-70.13.16-140.26.13-210.38.18-37.7.03-75.41.09-113.11.08-45.54-.01-91.09.06-136.63-.26-7.69-.05-15.34-2.03-23.04-2.83-7.27-.76-10.81-4.84-11.07-12.7H0c1.49-3.66,2.43-5.98,3.35-8.3-.01,0-.22-.06-.22-.06Z"/><path d="m526.4,30.9c.31,2.26.88,4.52.88,6.77.06,115.54.1,231.08-.02,346.62,0,3.15-1.74,6.3-2.67,9.44,0,0,.14.06.14.06-5.44-6.75-10.75-13.62-16.45-20.15-1.07-1.23-3.73-1.7-5.57-1.54-41.78,3.56-83.48,8.78-125.32,10.55-53.96,2.29-108.08,3.53-162.04,2.09-50.77-1.36-101.43-6.8-152.14-10.49-2.73-.2-5.65-.39-8.1-1.46-5.39-2.35-9.33-.46-12.79,3.46-4.48,5.07-8.85,10.22-12.77,16.08,15.85,2.07,31.05,3.33,46.18-1.06,13.3-3.86,26.46-3.75,39.25,2.41,2.37,1.14,5.12,1.97,7.72,2.04,27.75.78,55.49,1.61,83.24,1.96,40.04.51,80.09,1.19,120.13.77,33.66-.35,67.29-2.19,100.94-3.31,5.19-.17,10.39-.02,16.2.75-1.9.46-3.8,1.27-5.71,1.32-17.58.41-35.16.87-52.75.98-63.54.4-127.09,1.22-190.63.82-53.18-.34-106.36-2.16-159.54-3.36-6.52-.15-8.98-2.86-9.19-9.44-.74-23.24-2.06-46.48-2.18-69.73-.33-62.86-.17-125.72-.18-188.58,0-29.44,0-58.88.14-88.32.01-3.07.86-6.14,1.32-9.2,0,13.59,0,27.18,0,40.77.47,0,.93,0,1.4,0V29.92c1.91-.5,3.82-1.4,5.73-1.43,44.7-.6,89.4-1.31,134.1-1.59,62.71-.38,125.42-.78,188.13-.52,54.44.23,108.88,1.34,163.31,2.12,2.28.03,4.55.72,6.82,1.11.39,3.11,1.11,6.22,1.12,9.33.08,32.37.05,64.73.05,97.1,1.21-5.22,1.21-10.44,1.21-15.66,0-29.83.02-59.66.03-89.49Zm-312.86,15.38c-.03-.43-.06-.85-.09-1.28-42.04,2.64-84.1,5.04-126.12,8.1-10.94.8-20.04,6.52-24.88,16.81-2.19,4.64-3.44,10.05-3.78,15.19-1.59,24.69-3.45,49.4-3.8,74.13-.3,20.91,1.33,41.84,2.09,62.76,1.28,35.23,2.28,70.45,8.59,105.3,1.6,8.84,4.94,16.62,11.18,22.17,6.19,5.52,13.76,10.73,21.6,12.88,12.88,3.52,26.4,5.47,39.76,6.28,37.7,2.28,75.46,4.87,113.2,5.06,45.4.22,90.84-1.23,136.2-3.29,28.29-1.29,56.48-4.89,84.68-7.77,10.44-1.06,17.47-7.98,18.47-17.81,1.72-16.99,3.62-33.99,4.4-51.04,1.5-32.92,2.36-65.87,3.31-98.81.28-9.94.28-19.92-.15-29.85-1.18-27.05-2.45-54.11-4.2-81.13-.4-6.1-1.69-12.75-4.67-17.95-4.95-8.63-14.43-10.56-23.65-11.38-9.86-.87-19.78-.96-29.66-1.65-17.28-1.21-34.52-3.16-51.82-3.82-34.42-1.32-68.86-2.19-103.31-2.83-22.44-.41-44.89-.08-67.34-.08Zm-74.62-3.21c26.83-.73,53.67-1.34,80.5-2.22,82.68-2.72,165.21.37,247.64,6.75,9.32.72,19.43.36,27.05,7.97-3.16-4.99-6.64-9.25-12.97-9.85-23.81-2.28-47.57-5.21-71.43-6.78-27.25-1.79-54.57-2.84-81.88-3.38-31.55-.62-63.16-1.26-94.68-.16-31.48,1.1-63.38-1.51-94.24,7.66Zm367.62,142.37c.42,0,.83,0,1.25-.01,1.16,19.98,2.33,39.97,3.49,59.95,2.87-65.63,3.72-131.16-6.8-196.31.48,9.95.97,19.9,1.45,29.71-8.03.91-6.51-5.34-6.97-8.96,2.21,61.47,4.43,122.93,6.64,184.4-.47.02-.94.03-1.41.05.78-22.94,1.56-45.89,2.34-68.83Zm-11.68,172.35c-6.42,2.76-11.59,6.44-17.13,7.11-29.37,3.58-58.81,6.83-88.29,9.34-19.81,1.69-39.74,1.97-59.61,2.89-49.57,2.29-99.1,1.18-148.59-1.94-25.13-1.59-50.28-3.22-75.28-6.12-14.81-1.72-30.68-.78-43.47-11.09-.48-.38-1.53-.05-2.43-.05,1.72,6.09,5.32,9.04,12.43,9.95,14.89,1.9,29.79,3.78,44.71,5.42,52.04,5.73,104.26,8.36,156.59,8.73,54.04.38,107.94-2.84,161.72-7.89,15.77-1.48,31.47-3.88,47.16-6.13,5.44-.78,9.8-3.57,12.19-10.23ZM47.67,48.26c-6.88,8.38-12.46,160.37-6.37,184.15.93-21.78.78-43.56,1.06-65.34.05-4.22,1.75-8.42,2.69-12.63.66.11,1.32.22,1.98.33v78.94c-.22-.02-.43-.04-.65-.06,2.25-53.21,4.51-106.42,6.76-159.63.44,4.86-1.44,7.85-7.46,5.77.64-10.16,1.28-20.25,1.99-31.53Z"/><path d="m145.83,25.42c1.97-.49,3.94-1.41,5.91-1.42,84.74-.07,169.49-.06,254.24.63-19.4,0-38.79-.01-58.19,0-65.26.04-130.51.08-195.77.16-2.09,0-4.18.37-6.28.57,0,0,.09.06.09.06Z"/><path d="m145.74,25.36c-25.38.29-50.76.53-76.14.91-12.04.18-24.08.65-36.12.96-1.41.04-2.82-.17-4.23-.27,0-.69,0-1.37,0-2.06,17.08,0,34.15.03,51.23,0,19.67-.04,39.34-.15,59.02-.17,2.09,0,4.18.43,6.29.67.03.02-.06-.04-.06-.04Z"/><path class="b" d="m526.4,30.9c0,29.83-.02,59.66-.03,89.49,0,5.22,0,10.44-1.21,15.66,0-32.37.03-64.73-.05-97.1,0-3.11-.73-6.22-1.12-9.33.8.43,1.61.86,2.41,1.28Z"/><path d="m524.59,393.73c-1.77.58-3.53,1.66-5.31,1.67-14.36.14-28.72.08-43.08.08l-.03-1.73c16.16,0,32.33,0,48.52.01.03.01-.11-.04-.11-.04Z"/><path d="m471.61,395.92h-24.21c.03-.57.06-1.14.08-1.71,7.41.53,14.82,1.05,24.12,1.71Z"/><path class="b" d="m25.9,29.92v41.23c-.47,0-.93,0-1.4,0,0-13.59,0-27.18,0-40.77.47-.15.93-.31,1.4-.46Z"/><path d="m530.78,158.88v-26.47c.14,0,.28,0,.42,0v26.77c-.14-.1-.28-.2-.42-.31Z"/><path d="m621.24,356.82c-19.5-.32-34.64-15.45-34.64-34.62,0-18.7,16.4-33.66,36.52-33.33,18.29.3,33.36,15.75,33.11,33.92-.27,19.48-15.55,34.34-34.99,34.02Z"/><path d="m587.18,246.09c.2-19.25,15.19-33.76,34.69-33.61,19.54.16,34.54,15.32,34.35,34.72-.18,18.63-16.55,33.93-35.83,33.5-18.54-.42-33.41-15.91-33.21-34.61Zm42.64,4.26c-1.2,1.57-2.98,3.13-2.71,3.68,1.75,3.54,3.94,6.87,5.99,10.26.77-.41,1.53-.82,2.3-1.23-1.69-3.86-3.39-7.72-5.58-12.71Z"/></svg>